<svg xmlns="http://www.w3.org/2000/svg" width="121" height="37" viewBox="0 0 120.8 37.4"><style>.a{fill:#F0F2F7;}</style><circle cx="60.4" cy="18.7" r="2.8" class="a"/><circle cx="51.9" cy="16.3" r="2.8" class="a"/><circle cx="44.9" cy="10.4" r="2.8" class="a"/><circle cx="41.2" cy="2.8" r="2.8" class="a"/><circle cx="68.8" cy="16.3" r="2.8" class="a"/><circle cx="75.8" cy="10.4" r="2.8" class="a"/><circle cx="79.5" cy="2.8" r="2.8" class="a"/><circle cx="98.8" cy="18.7" r="2.8" class="a"/><circle cx="90.3" cy="16.3" r="2.8" class="a"/><circle cx="83.4" cy="10.4" r="2.8" class="a"/><circle cx="107.2" cy="16.3" r="2.8" class="a"/><circle cx="114.2" cy="10.4" r="2.8" class="a"/><circle cx="117.9" cy="2.8" r="2.8" class="a"/><circle cx="21.9" cy="18.7" r="2.8" class="a"/><circle cx="30.4" cy="16.3" r="2.8" class="a"/><circle cx="37.4" cy="10.4" r="2.8" class="a"/><circle cx="13.6" cy="16.3" r="2.8" class="a"/><circle cx="6.6" cy="10.4" r="2.8" class="a"/><circle cx="2.8" cy="2.8" r="2.8" class="a"/><circle cx="79.7" cy="34.6" r="2.8" class="a"/><circle cx="71.2" cy="32.1" r="2.8" class="a"/><circle cx="64.2" cy="26.3" r="2.8" class="a"/><circle cx="88.1" cy="32.1" r="2.8" class="a"/><circle cx="95.1" cy="26.3" r="2.8" class="a"/><circle cx="41.3" cy="34.6" r="2.8" class="a"/><circle cx="32.8" cy="32.1" r="2.8" class="a"/><circle cx="25.8" cy="26.3" r="2.8" class="a"/><circle cx="49.6" cy="32.1" r="2.8" class="a"/><circle cx="56.6" cy="26.3" r="2.8" class="a"/></svg>