<svg xmlns="http://www.w3.org/2000/svg" width="107" height="62" viewBox="0 0 106.9 61.9"><style>.a{fill:#F0F2F7;}</style><rect x="14.9" y="30" width="77.7" height="2" class="a"/><circle cx="53.6" cy="2.6" r="2.6" class="a"/><circle cx="39" cy="3.4" r="2.6" class="a"/><circle cx="24.8" cy="7.2" r="2.6" class="a"/><circle cx="9.6" cy="16.8" r="2.6" class="a"/><circle cx="2.6" cy="30.9" r="2.6" class="a"/><circle cx="67.8" cy="3.4" r="2.6" class="a"/><circle cx="82.1" cy="7.2" r="2.6" class="a"/><circle cx="97.9" cy="16.8" r="2.6" class="a"/><circle cx="53.6" cy="59.4" r="2.6" class="a"/><circle cx="39" cy="58.5" r="2.6" class="a"/><circle cx="24.8" cy="54.7" r="2.6" class="a"/><circle cx="9.5" cy="45.2" r="2.6" class="a"/><circle cx="67.8" cy="58.5" r="2.6" class="a"/><circle cx="82.1" cy="54.7" r="2.6" class="a"/><circle cx="97.9" cy="45.1" r="2.6" class="a"/><circle cx="104.3" cy="30.9" r="2.6" class="a"/><rect x="52.7" y="14.1" width="2" height="33.3" class="a"/><rect x="70.8" y="22.3" width="2" height="17.6" class="a"/><rect x="32.8" y="22.3" width="2" height="17.6" class="a"/></svg>